HIERARCHY
ROOT Root
{
  OFFSET 0.0 0.0 0.0
  CHANNELS 6 Xposition Yposition Zposition Zrotation Yrotation Xrotation
  JOINT Hips
  {
    OFFSET 0.0 100.0 0.0
    CHANNELS 6 Xposition Yposition Zposition Zrotation Yrotation Xrotation
    JOINT Spine1
    {
      OFFSET -0.013727 5.003763 -0.053727
      CHANNELS 3 Zrotation Yrotation Xrotation
      JOINT Spine2
      {
        OFFSET -0.0 7.125301 -0.029825
        CHANNELS 3 Zrotation Yrotation Xrotation
        JOINT Chest
        {
          OFFSET -1e-06 7.550063 -0.815971
          CHANNELS 3 Zrotation Yrotation Xrotation
          JOINT Neck1
          {
            OFFSET -0.181677 26.311295 -0.553348
            CHANNELS 3 Zrotation Yrotation Xrotation
            JOINT Neck2
            {
              OFFSET -3e-06 7.709397 2.302585
              CHANNELS 3 Zrotation Yrotation Xrotation
              JOINT Head
              {
                OFFSET -5e-06 6.128916 1.953709
                CHANNELS 3 Zrotation Yrotation Xrotation
                JOINT HeadEnd
                {
                  OFFSET 0.003598 16.065403 -1.835379
                  CHANNELS 3 Zrotation Yrotation Xrotation
                }
                JOINT Jaw
                {
                  OFFSET 0.002637 0.475592 3.094941
                  CHANNELS 3 Zrotation Yrotation Xrotation
                }
                JOINT LeftEye
                {
                  OFFSET 3.206381 5.380205 7.586883
                  CHANNELS 3 Zrotation Yrotation Xrotation
                }
                JOINT RightEye
                {
                  OFFSET -3.22244 5.361869 7.558234
                  CHANNELS 3 Zrotation Yrotation Xrotation
                }
              }
            }
          }
          JOINT LeftShoulder
          {
            OFFSET 1.621652 23.237164 5.113413
            CHANNELS 3 Zrotation Yrotation Xrotation
            JOINT LeftArm
            {
              OFFSET 14.919846 2e-06 -5.502326
              CHANNELS 3 Zrotation Yrotation Xrotation
              JOINT LeftForeArm
              {
                OFFSET 28.739307 0.0 -0.002588
                CHANNELS 3 Zrotation Yrotation Xrotation
                JOINT LeftHand
                {
                  OFFSET 27.093981 -1e-06 0.002609
                  CHANNELS 3 Zrotation Yrotation Xrotation
                  JOINT LeftHandThumb1
                  {
                    OFFSET 2.276482 -1.392045 3.191413
                    CHANNELS 3 Zrotation Yrotation Xrotation
                    JOINT LeftHandThumb2
                    {
                      OFFSET 4.012836 -1.828127 1.641654
                      CHANNELS 3 Zrotation Yrotation Xrotation
                      JOINT LeftHandThumb3
                      {
                        OFFSET 2.798515 0.0 -3e-06
                        CHANNELS 3 Zrotation Yrotation Xrotation
                        JOINT LeftHandThumbEnd
                        {
                          OFFSET 3.180793 -4e-06 4e-06
                          CHANNELS 3 Zrotation Yrotation Xrotation
                        }
                      }
                    }
                  }
                  JOINT LeftHandIndex1
                  {
                    OFFSET 3.247555 -0.531998 2.296169
                    CHANNELS 3 Zrotation Yrotation Xrotation
                    JOINT LeftHandIndex2
                    {
                      OFFSET 6.364578 0.01206 0.1786
                      CHANNELS 3 Zrotation Yrotation Xrotation
                      JOINT LeftHandIndex3
                      {
                        OFFSET 3.662364 0.0 0.0
                        CHANNELS 3 Zrotation Yrotation Xrotation
                        JOINT LeftHandIndex4
                        {
                          OFFSET 2.329242 4e-06 4e-06
                          CHANNELS 3 Zrotation Yrotation Xrotation
                          JOINT LeftHandIndexEnd
                          {
                            OFFSET 2.759615 -0.180537 -0.113024
                            CHANNELS 3 Zrotation Yrotation Xrotation
                          }
                        }
                      }
                    }
                  }
                  JOINT LeftHandMiddle1
                  {
                    OFFSET 3.163495 0.240981 1.000332
                    CHANNELS 3 Zrotation Yrotation Xrotation
                    JOINT LeftHandMiddle2
                    {
                      OFFSET 6.19078 -0.259278 -1.002548
                      CHANNELS 3 Zrotation Yrotation Xrotation
                      JOINT LeftHandMiddle3
                      {
                        OFFSET 4.35652 -4e-06 -1e-06
                        CHANNELS 3 Zrotation Yrotation Xrotation
                        JOINT LeftHandMiddle4
                        {
                          OFFSET 2.996877 -8e-06 0.0
                          CHANNELS 3 Zrotation Yrotation Xrotation
                          JOINT LeftHandMiddleEnd
                          {
                            OFFSET 2.304287 -0.294569 -0.031741
                            CHANNELS 3 Zrotation Yrotation Xrotation
                          }
                        }
                      }
                    }
                  }
                  JOINT LeftHandRing1
                  {
                    OFFSET 2.882643 -0.053652 -0.322543
                    CHANNELS 3 Zrotation Yrotation Xrotation
                    JOINT LeftHandRing2
                    {
                      OFFSET 5.854541 -0.486202 -1.373841
                      CHANNELS 3 Zrotation Yrotation Xrotation
                      JOINT LeftHandRing3
                      {
                        OFFSET 4.350578 0.0 3e-06
                        CHANNELS 3 Zrotation Yrotation Xrotation
                        JOINT LeftHandRing4
                        {
                          OFFSET 2.651321 7e-06 2e-06
                          CHANNELS 3 Zrotation Yrotation Xrotation
                          JOINT LeftHandRingEnd
                          {
                            OFFSET 1.936105 0.077687 -7.1e-05
                            CHANNELS 3 Zrotation Yrotation Xrotation
                          }
                        }
                      }
                    }
                  }
                  JOINT LeftHandPinky1
                  {
                    OFFSET 2.8655 -0.310005 -1.600378
                    CHANNELS 3 Zrotation Yrotation Xrotation
                    JOINT LeftHandPinky2
                    {
                      OFFSET 5.087849 -1.331141 -1.77123
                      CHANNELS 3 Zrotation Yrotation Xrotation
                      JOINT LeftHandPinky3
                      {
                        OFFSET 3.070974 4e-06 0.0
                        CHANNELS 3 Zrotation Yrotation Xrotation
                        JOINT LeftHandPinky4
                        {
                          OFFSET 1.549672 0.0 1e-06
                          CHANNELS 3 Zrotation Yrotation Xrotation
                          JOINT LeftHandPinkyEnd
                          {
                            OFFSET 1.944893 -0.157802 0.057219
                            CHANNELS 3 Zrotation Yrotation Xrotation
                          }
                        }
                      }
                    }
                  }
                }
              }
            }
          }
          JOINT RightShoulder
          {
            OFFSET -1.380118 23.180309 5.214158
            CHANNELS 3 Zrotation Yrotation Xrotation
            JOINT RightArm
            {
              OFFSET -15.037196 1.2e-05 -5.545604
              CHANNELS 3 Zrotation Yrotation Xrotation
              JOINT RightForeArm
              {
                OFFSET -28.736639 2e-06 -0.002597
                CHANNELS 3 Zrotation Yrotation Xrotation
                JOINT RightHand
                {
                  OFFSET -27.133619 -0.0 0.002613
                  CHANNELS 3 Zrotation Yrotation Xrotation
                  JOINT RightHandThumb1
                  {
                    OFFSET -2.274032 -1.383988 3.163127
                    CHANNELS 3 Zrotation Yrotation Xrotation
                    JOINT RightHandThumb2
                    {
                      OFFSET -4.011429 -1.827466 1.640914
                      CHANNELS 3 Zrotation Yrotation Xrotation
                      JOINT RightHandThumb3
                      {
                        OFFSET -2.794935 -4e-06 -3e-06
                        CHANNELS 3 Zrotation Yrotation Xrotation
                        JOINT RightHandThumbEnd
                        {
                          OFFSET -3.183852 4e-06 1e-06
                          CHANNELS 3 Zrotation Yrotation Xrotation
                        }
                      }
                    }
                  }
                  JOINT RightHandIndex1
                  {
                    OFFSET -3.253266 -0.520057 2.282866
                    CHANNELS 3 Zrotation Yrotation Xrotation
                    JOINT RightHandIndex2
                    {
                      OFFSET -6.341917 0.012471 0.178266
                      CHANNELS 3 Zrotation Yrotation Xrotation
                      JOINT RightHandIndex3
                      {
                        OFFSET -3.654871 -8e-06 -0.0
                        CHANNELS 3 Zrotation Yrotation Xrotation
                        JOINT RightHandIndex4
                        {
                          OFFSET -2.327586 0.0 1e-06
                          CHANNELS 3 Zrotation Yrotation Xrotation
                          JOINT RightHandIndexEnd
                          {
                            OFFSET -2.76179 -0.180656 -0.113078
                            CHANNELS 3 Zrotation Yrotation Xrotation
                          }
                        }
                      }
                    }
                  }
                  JOINT RightHandMiddle1
                  {
                    OFFSET -3.168106 0.246593 1.00103
                    CHANNELS 3 Zrotation Yrotation Xrotation
                    JOINT RightHandMiddle2
                    {
                      OFFSET -6.180828 -0.258836 -1.000895
                      CHANNELS 3 Zrotation Yrotation Xrotation
                      JOINT RightHandMiddle3
                      {
                        OFFSET -4.348901 0.0 -0.0
                        CHANNELS 3 Zrotation Yrotation Xrotation
                        JOINT RightHandMiddle4
                        {
                          OFFSET -3.00024 -4e-06 -2e-06
                          CHANNELS 3 Zrotation Yrotation Xrotation
                          JOINT RightHandMiddleEnd
                          {
                            OFFSET -2.30252 -0.29437 -0.031706
                            CHANNELS 3 Zrotation Yrotation Xrotation
                          }
                        }
                      }
                    }
                  }
                  JOINT RightHandRing1
                  {
                    OFFSET -2.88569 -0.067952 -0.308858
                    CHANNELS 3 Zrotation Yrotation Xrotation
                    JOINT RightHandRing2
                    {
                      OFFSET -5.854198 -0.48613 -1.373731
                      CHANNELS 3 Zrotation Yrotation Xrotation
                      JOINT RightHandRing3
                      {
                        OFFSET -4.33881 -4e-06 -0.0
                        CHANNELS 3 Zrotation Yrotation Xrotation
                        JOINT RightHandRing4
                        {
                          OFFSET -2.654903 -4e-06 4e-06
                          CHANNELS 3 Zrotation Yrotation Xrotation
                          JOINT RightHandRingEnd
                          {
                            OFFSET -1.933568 0.077527 -5.2e-05
                            CHANNELS 3 Zrotation Yrotation Xrotation
                          }
                        }
                      }
                    }
                  }
                  JOINT RightHandPinky1
                  {
                    OFFSET -2.866425 -0.342796 -1.584145
                    CHANNELS 3 Zrotation Yrotation Xrotation
                    JOINT RightHandPinky2
                    {
                      OFFSET -5.091371 -1.332055 -1.772385
                      CHANNELS 3 Zrotation Yrotation Xrotation
                      JOINT RightHandPinky3
                      {
                        OFFSET -3.062664 -4e-06 1e-06
                        CHANNELS 3 Zrotation Yrotation Xrotation
                        JOINT RightHandPinky4
                        {
                          OFFSET -1.546529 4e-06 -2e-06
                          CHANNELS 3 Zrotation Yrotation Xrotation
                          JOINT RightHandPinkyEnd
                          {
                            OFFSET -1.945119 -0.157718 0.057211
                            CHANNELS 3 Zrotation Yrotation Xrotation
                          }
                        }
                      }
                    }
                  }
                }
              }
            }
          }
        }
      }
    }
    JOINT LeftLeg
    {
      OFFSET 10.043214 -8.434526 2.595655
      CHANNELS 3 Zrotation Yrotation Xrotation
      JOINT LeftShin
      {
        OFFSET -1e-06 -43.221752 -0.802913
        CHANNELS 3 Zrotation Yrotation Xrotation
        JOINT LeftFoot
        {
          OFFSET 1e-06 -42.155094 -3.481523
          CHANNELS 3 Zrotation Yrotation Xrotation
          JOINT LeftToeBase
          {
            OFFSET 0.0 -5.059472 13.231529
            CHANNELS 3 Zrotation Yrotation Xrotation
            JOINT LeftToeEnd
            {
              OFFSET -0.009607 -1.647619 6.513017
              CHANNELS 3 Zrotation Yrotation Xrotation
            }
          }
        }
      }
    }
    JOINT RightLeg
    {
      OFFSET -10.047278 -8.29526 2.620317
      CHANNELS 3 Zrotation Yrotation Xrotation
      JOINT RightShin
      {
        OFFSET 1e-06 -43.362206 -0.805556
        CHANNELS 3 Zrotation Yrotation Xrotation
        JOINT RightFoot
        {
          OFFSET 2e-06 -42.117393 -3.478398
          CHANNELS 3 Zrotation Yrotation Xrotation
          JOINT RightToeBase
          {
            OFFSET -0.0 -5.079609 13.284196
            CHANNELS 3 Zrotation Yrotation Xrotation
            JOINT RightToeEnd
            {
              OFFSET 0.009532 -1.634378 6.460591
              CHANNELS 3 Zrotation Yrotation Xrotation
            }
          }
        }
      }
    }
  }
}
MOTION
Frames: 4
Frame Time: 0.03333333333333333
0.0 0.0 0.0 0.0 -0.0 0.0 -0.93595 98.520638 1.598067 -0.576194 0.499087 -3.251944 0.145235 -0.256825 -0.064732 -0.438374 -0.917772 -5.280242 -0.520365 -2.739217 15.112677 2.549259 1.870611 11.375793 0.055344 1.693675 -3.878494 -0.904071 1.951877 -17.959505 7.7e-05 -2.2e-05 6e-06 0.014591 0.01972 0.003208 0.66848 -3.684854 -10.46467 -0.645364 3.74072 -10.50163 -9.112926 -7.507591 19.040043 -66.259918 -18.020073 24.638477 0.107137 -15.696797 -0.10258 10.824425 -2.970125 -16.801466 -5.882098 9.861278 0.702591 -10.936857 -0.360576 7.1562 0.0 8.774817 -2e-06 -15.835154 18.221941 6.166462 -1.84403 2.498503 -2.507277 -10.163588 4.67894 4.621105 -20.976 -4e-06 3e-06 -21.226257 2.451696 -3.593996 -1e-06 -6e-06 -1e-06 -1.36268 2.240796 -0.746323 -21.334888 0.584908 3.008321 -13.821198 -3e-06 3e-06 -23.887142 -0.249078 -0.839479 -60.118336 2.22937 -0.736272 -0.294024 1.679687 0.833255 -14.218191 0.093215 1.30058 -34.212009 -0.287562 0.967174 -20.03319 0.964539 1.212844 -1e-06 0.0 1e-06 -3.440384 0.788233 0.501655 -15.928167 -3.167307 2.999707 -6.338818 0.0 1e-06 -18.123423 3.648181 -4.905665 -5e-06 -0.0 -2e-06 9.485276 11.02654 17.26623 71.170219 13.53702 15.35857 0.650974 20.371286 0.173408 -2.621562 4.996319 -6.259935 2.24354 -5.255033 -3.180157 14.282881 -0.826596 6.952498 -1e-06 -12.6906 2e-06 16.348787 -18.105221 2.665366 1.665665 -1.95592 -2.878298 4.727796 -4.170587 4.993922 11.020519 1e-06 -2e-06 12.109046 -3.735717 -2.866785 -1e-06 0.0 1e-06 1.291985 -1.928548 -1.498087 14.800118 0.567467 3.865607 14.242561 -1.341737 -6.660655 19.631954 0.143925 -0.648246 50.192642 -0.709603 -6.510029 0.353029 -1.511152 -0.031941 20.222778 3.684307 2.316629 18.787266 4e-06 -1e-06 10.751622 -0.479871 1.397905 1e-06 0.0 1e-06 3.273805 0.305946 -0.58011 21.486795 11.830368 2.266131 8.162922 2e-06 0.0 18.399075 -3.798984 -4.940572 5e-06 0.0 -1e-06 8.125669 -2.821463 3.719407 0.084991 0.005993 13.885397 -11.823819 9.867532 -11.937478 1.726861 -1.890385 -1.024189 0.0 0.0 2e-06 3.11128 -6.122504 10.420322 0.046103 -0.201775 2.650469 3.543952 -10.72532 -12.82714 -1.427294 1.005641 -0.138006 -0.0 -0.0 -1e-06 
0.0 0.0 0.0 0.0 -0.0 0.0 -1.272749 98.223434 2.74508 -1.07647 0.565546 -3.437999 0.500862 -0.103653 0.267436 -0.383683 -1.004476 -5.157 -0.324065 -2.691401 15.136423 2.286772 1.950318 11.514438 0.062905 1.834259 -3.793188 -0.768374 1.786143 -18.031101 7.7e-05 -2.3e-05 6e-06 0.0285 0.035952 0.028849 0.664457 -3.664639 -10.436273 -0.615624 3.754447 -10.472883 -8.812517 -7.607235 19.078449 -66.296257 -18.451059 24.12446 0.207578 -15.786903 -0.131855 11.104194 -2.760135 -17.12236 -5.882102 9.861277 0.702589 -10.936865 -0.360577 7.156201 2e-06 8.774819 -3e-06 -15.738029 18.202028 6.349395 -1.844031 2.498503 -2.507276 -10.163594 4.67894 4.621103 -20.976013 -8e-06 1e-06 -21.226278 2.45169 -3.593996 1e-06 -6e-06 -0.0 -1.36268 2.240797 -0.746323 -21.334904 0.584906 3.00832 -13.821206 -5e-06 2e-06 -23.887156 -0.249084 -0.839481 -60.280613 2.254015 -0.537533 -0.294023 1.679686 0.833255 -14.218202 0.093213 1.300579 -34.212036 -0.287572 0.96717 -20.033201 0.964531 1.212844 0.0 3e-06 1e-06 -3.440387 0.788233 0.501654 -15.928179 -3.167311 2.999703 -6.338823 -2e-06 -2e-06 -18.12344 3.648176 -4.905665 -5e-06 -1e-06 -2e-06 9.021285 11.104049 17.702757 71.658653 14.105577 16.107437 0.582616 19.860531 0.144449 -2.401814 4.610456 -5.72449 2.24354 -5.255033 -3.180155 14.282888 -0.826592 6.952497 -3e-06 -12.690598 -1e-06 16.391928 -18.119442 2.557988 1.665665 -1.95592 -2.878298 4.727797 -4.170585 4.99392 11.020523 3e-06 -1e-06 12.109048 -3.735714 -2.866782 -1e-06 -0.0 0.0 1.291985 -1.928548 -1.498088 14.800125 0.56747 3.865604 14.242569 -1.341734 -6.660653 19.631964 0.143925 -0.648243 50.073254 -0.543947 -6.41953 0.353029 -1.511149 -0.031941 20.22279 3.684311 2.316629 18.78727 7e-06 0.0 10.751627 -0.479866 1.397906 1e-06 -1e-06 1e-06 3.273806 0.305947 -0.58011 21.486809 11.830371 2.266131 8.162926 3e-06 0.0 18.399076 -3.798982 -4.940572 4e-06 0.0 -2e-06 8.617264 -3.935985 -0.079663 0.11587 -0.103469 22.967182 -12.221078 11.125213 -13.39675 1.736755 -1.974852 -2.207005 -0.0 0.0 1e-06 3.980294 -6.023629 11.301028 0.037146 -0.187032 2.681894 3.839839 -10.855892 -13.782404 -1.423368 0.957338 -0.364987 -0.0 -0.0 -1e-06 
0.0 0.0 0.0 0.0 -0.0 0.0 -1.649664 98.024971 3.626773 -1.22052 0.657393 -3.882552 0.674409 0.002424 0.859825 -0.370109 -0.887225 -4.96284 -0.239362 -2.645836 15.223972 2.052052 2.010585 11.657885 0.073102 2.006455 -3.806221 -0.659009 1.750998 -18.128132 7.7e-05 -2.3e-05 6e-06 0.033197 0.003545 0.050794 0.659992 -3.699244 -10.416492 -0.603112 3.723993 -10.453722 -8.461635 -7.719342 19.073698 -66.342682 -18.971638 23.410505 0.301676 -15.952903 -0.163252 11.245937 -2.595519 -17.442028 -5.882104 9.861281 0.70259 -10.936868 -0.360575 7.1562 1e-06 8.774822 -2e-06 -15.771223 18.193319 6.403704 -1.844033 2.498502 -2.507277 -10.163596 4.678944 4.621106 -20.976017 -5e-06 1e-06 -21.226282 2.451694 -3.593999 0.0 -6e-06 -0.0 -1.362679 2.240796 -0.746321 -21.334909 0.584909 3.008322 -13.821213 -4e-06 2e-06 -23.887161 -0.249081 -0.839483 -60.364613 2.316882 -0.457984 -0.294024 1.679685 0.833255 -14.218204 0.093214 1.300579 -34.212048 -0.287569 0.96717 -20.033211 0.964533 1.212843 -0.0 1e-06 -1e-06 -3.440387 0.788232 0.501654 -15.928183 -3.16731 2.999704 -6.338825 -2e-06 3e-06 -18.123444 3.648179 -4.90567 -5e-06 -0.0 -2e-06 8.545033 11.302868 18.12335 72.074997 14.652307 16.996424 0.423961 19.514931 0.08351 -2.24843 4.241642 -5.946 2.243542 -5.255037 -3.180157 14.282892 -0.826594 6.952502 -3e-06 -12.690603 0.0 16.379747 -18.124086 2.595542 1.665666 -1.955921 -2.878298 4.727799 -4.170587 4.993924 11.020528 3e-06 -2e-06 12.109053 -3.735716 -2.866785 -1e-06 0.0 1e-06 1.291985 -1.928549 -1.498089 14.800129 0.567468 3.865606 14.242574 -1.341736 -6.660658 19.631969 0.143927 -0.648245 50.131641 -0.462217 -6.25839 0.353028 -1.511151 -0.03194 20.222794 3.684311 2.31663 18.787271 6e-06 1e-06 10.751627 -0.479869 1.397907 0.0 -0.0 0.0 3.273807 0.305947 -0.580111 21.486813 11.830377 2.26613 8.16293 2e-06 -1e-06 18.39908 -3.798985 -4.940576 3e-06 1e-06 -3e-06 8.481047 -4.274358 -5.099645 0.050467 -0.296294 34.394135 -11.086334 12.773913 -12.739207 1.758932 -2.025125 -3.922996 -0.0 -0.0 2e-06 4.276358 -6.135221 12.54007 0.057001 -0.243022 2.628542 3.883386 -10.674956 -14.422608 -1.418478 0.955425 -0.474401 0.0 0.0 -1e-06 
0.0 0.0 0.0 0.0 -0.0 0.0 -1.975431 97.799973 4.49032 -0.985782 0.711396 -4.391274 0.64214 0.066874 1.556754 -0.378384 -0.703328 -4.715241 -0.226803 -2.537938 15.329636 1.824186 2.172542 11.714953 0.054324 2.033226 -3.816424 -0.525977 1.70024 -18.49132 7.7e-05 -2.3e-05 6e-06 0.030063 -0.017533 0.06152 0.653589 -3.72633 -10.415162 -0.603936 3.708733 -10.452081 -8.185129 -7.740065 18.937477 -66.358322 -19.382082 22.779037 0.359809 -16.243084 -0.161266 11.389231 -2.401138 -18.176823 -5.882101 9.861276 0.702588 -10.936859 -0.360574 7.156202 -0.0 8.774817 -1e-06 -15.834102 18.141455 6.389275 -1.844029 2.498503 -2.507277 -10.163589 4.678942 4.621108 -20.976 -0.0 4e-06 -21.226259 2.451698 -3.593998 0.0 -6e-06 0.0 -1.36268 2.240797 -0.746322 -21.334888 0.584911 3.008325 -13.821198 -1e-06 4e-06 -23.887142 -0.249075 -0.839481 -60.358532 2.329883 -0.397739 -0.294024 1.679686 0.833256 -14.218193 0.093217 1.300582 -34.212013 -0.287558 0.967173 -20.033192 0.96454 1.212842 -0.0 0.0 -1e-06 -3.440384 0.788233 0.501656 -15.928168 -3.167306 2.999707 -6.33882 0.0 3e-06 -18.123426 3.648184 -4.905664 -6e-06 -0.0 -1e-06 8.024218 11.496526 18.322987 72.411079 15.005434 17.494722 0.341802 19.227625 0.036081 -2.155385 4.140661 -6.264656 2.243537 -5.255031 -3.180154 14.282866 -0.826594 6.952493 -1e-06 -12.690588 -1e-06 16.23715 -18.02463 2.639599 1.665663 -1.955919 -2.878295 4.727791 -4.170582 4.993917 11.020509 2e-06 0.0 12.109033 -3.735713 -2.866779 -1e-06 -0.0 0.0 1.291983 -1.928547 -1.498088 14.800101 0.567468 3.865602 14.242545 -1.341736 -6.660646 19.631931 0.143925 -0.648242 50.156666 -0.409281 -6.18737 0.353028 -1.511148 -0.03194 20.222754 3.684305 2.316626 18.787239 3e-06 0.0 10.751608 -0.479868 1.397905 0.0 -1e-06 1e-06 3.273801 0.305947 -0.580109 21.486776 11.830359 2.266131 8.162913 2e-06 -1e-06 18.39905 -3.798981 -4.940567 3e-06 0.0 -1e-06 7.709978 -3.283419 -10.56364 -0.05954 -0.355574 45.503872 -9.23252 13.692565 -11.04739 1.757795 -2.013248 -4.001807 0.0 0.0 3e-06 3.956134 -6.655567 13.974134 0.055601 -0.263898 2.599636 3.823163 -10.029616 -14.984215 -1.408746 0.978962 -0.554821 0.0 0.0 -1e-06 
